<svg width="15" height="8" viewBox="0 0 15 8" fill="none" xmlns="http://www.w3.org/2000/svg">
<path d="M1 3.5C0.723858 3.5 0.5 3.72386 0.5 4C0.5 4.27614 0.723858 4.5 1 4.5L1 3.5ZM14.3536 4.35356C14.5488 4.15829 14.5488 3.84171 14.3536 3.64645L11.1716 0.464467C10.9763 0.269205 10.6597 0.269205 10.4645 0.464467C10.2692 0.65973 10.2692 0.976312 10.4645 1.17157L13.2929 4L10.4645 6.82843C10.2692 7.02369 10.2692 7.34027 10.4645 7.53554C10.6597 7.7308 10.9763 7.7308 11.1716 7.53554L14.3536 4.35356ZM1 4C1 4.5 1.00002 4.5 1.00006 4.5C1.00011 4.5 1.00017 4.5 1.00026 4.5C1.00043 4.5 1.00068 4.5 1.00102 4.5C1.0017 4.5 1.00272 4.5 1.00407 4.5C1.00678 4.5 1.01084 4.5 1.01623 4.5C1.02702 4.5 1.04314 4.5 1.06448 4.5C1.10716 4.5 1.17072 4.5 1.25426 4.5C1.42133 4.5 1.66829 4.5 1.98782 4.5C2.62688 4.5 3.55626 4.5 4.71751 4.5C7.04002 4.5 10.29 4.5 14 4.5L14 3.5C10.29 3.5 7.04002 3.5 4.71751 3.5C3.55626 3.5 2.62688 3.5 1.98782 3.5C1.66829 3.5 1.42133 3.5 1.25426 3.5C1.17072 3.5 1.10716 3.5 1.06448 3.5C1.04314 3.5 1.02702 3.5 1.01623 3.5C1.01084 3.5 1.00678 3.5 1.00407 3.5C1.00272 3.5 1.0017 3.5 1.00102 3.5C1.00068 3.5 1.00043 3.5 1.00026 3.5C1.00017 3.5 1.00011 3.5 1.00006 3.5C1.00002 3.5 1 3.5 1 4Z" fill="#1A1A1A"/>
</svg>
