<svg width="19" height="19" viewBox="0 0 19 19" fill="none" xmlns="http://www.w3.org/2000/svg">
<path d="M3 9.5C2.72386 9.5 2.5 9.72386 2.5 10C2.5 10.2761 2.72386 10.5 3 10.5L3 9.5ZM16.3536 10.3536C16.5488 10.1583 16.5488 9.84171 16.3536 9.64645L13.1716 6.46447C12.9763 6.26921 12.6597 6.26921 12.4645 6.46447C12.2692 6.65973 12.2692 6.97631 12.4645 7.17157L15.2929 10L12.4645 12.8284C12.2692 13.0237 12.2692 13.3403 12.4645 13.5355C12.6597 13.7308 12.9763 13.7308 13.1716 13.5355L16.3536 10.3536ZM3 10C3 10.5 3.00002 10.5 3.00006 10.5C3.00011 10.5 3.00017 10.5 3.00026 10.5C3.00043 10.5 3.00068 10.5 3.00102 10.5C3.0017 10.5 3.00272 10.5 3.00407 10.5C3.00678 10.5 3.01084 10.5 3.01623 10.5C3.02702 10.5 3.04314 10.5 3.06448 10.5C3.10716 10.5 3.17072 10.5 3.25426 10.5C3.42133 10.5 3.66829 10.5 3.98782 10.5C4.62688 10.5 5.55626 10.5 6.71751 10.5C9.04002 10.5 12.29 10.5 16 10.5L16 9.5C12.29 9.5 9.04002 9.5 6.71751 9.5C5.55626 9.5 4.62688 9.5 3.98782 9.5C3.66829 9.5 3.42133 9.5 3.25426 9.5C3.17072 9.5 3.10716 9.5 3.06448 9.5C3.04314 9.5 3.02702 9.5 3.01623 9.5C3.01084 9.5 3.00678 9.5 3.00407 9.5C3.00272 9.5 3.0017 9.5 3.00102 9.5C3.00068 9.5 3.00043 9.5 3.00026 9.5C3.00017 9.5 3.00011 9.5 3.00006 9.5C3.00002 9.5 3 9.5 3 10Z" fill="white"/>
</svg>
