<svg width="80" height="80" viewBox="0 0 80 80" fill="none" xmlns="http://www.w3.org/2000/svg">
<path d="M39.175 62.825L40.625 56.925C47.65 58.25 52.925 57.725 55.15 51.375C56.95 46.275 55.075 43.325 51.375 41.4C54.075 40.775 56.1 39 56.625 35.35C57.375 30.35 53.575 27.675 48.375 25.875L49.775 20.25M31.775 60.975L33.2 55.125C34.325 55.425 35.425 55.7 36.475 55.975M36.825 23C35.925 22.8 28.525 20.95 28.525 20.95L27.425 25.35C27.425 25.35 30.475 26.05 30.425 26.1C32.1 26.525 32.4 27.625 32.35 28.5L27.725 47.025C27.525 47.525 27 48.3 25.85 48C25.9 48.05 22.85 47.25 22.85 47.25L20.8 51.975C20.8 51.975 28.125 53.825 29.1 54.075M44.275 24.675C43.2 24.4 42.075 24.15 40.975 23.9L42.325 18.4M36.775 41.125C39.575 41.825 48.5 43.2 47.175 48.525C45.9 53.625 37.3 50.875 34.5 50.175L35.75 45.15M39.875 28.775C42.2 29.35 49.675 30.425 48.475 35.275C47.325 39.925 40.15 37.55 37.825 36.975L38.875 32.775M76.25 40C76.25 60.0203 60.0203 76.25 40 76.25C19.9797 76.25 3.75 60.0203 3.75 40C3.75 19.9797 19.9797 3.75 40 3.75C60.0203 3.75 76.25 19.9797 76.25 40Z" stroke="#C94D00" stroke-width="3.3" stroke-miterlimit="10" stroke-linecap="round" stroke-linejoin="round"/>
</svg>
