<svg width="60" height="60" viewBox="0 0 60 60" fill="none" xmlns="http://www.w3.org/2000/svg">
<g clip-path="url(#clip0_4670_1359)">
<path d="M55.2128 10.2128H43.5587C43.2697 9.39809 42.6232 8.75156 41.8085 8.46258V0.957422C41.8085 0.428555 41.38 0 40.8511 0H19.1489C18.62 0 18.1915 0.428555 18.1915 0.957422V8.46258C17.3768 8.75156 16.7303 9.39809 16.4413 10.2128H4.78723C2.14746 10.2128 0 12.3602 0 15V55.2128C0 57.8525 2.14746 60 4.78723 60H55.2128C57.8525 60 60 57.8525 60 55.2128V15C60 12.3602 57.8525 10.2128 55.2128 10.2128ZM20.1063 1.91484H39.8936V3.82969H20.1063V1.91484ZM20.1063 5.74465H39.8936V10.2128H20.1063V5.74465ZM4.78723 58.0852C3.20344 58.0852 1.91484 56.7966 1.91484 55.2128V48.5561C6.9593 49.0131 10.9868 53.0406 11.4438 58.085H4.78723V58.0852ZM58.0852 55.2128C58.0852 56.7966 56.7966 58.0852 55.2128 58.0852H48.5561C49.0131 53.0407 53.0406 49.0132 58.085 48.5562V55.2128H58.0852ZM58.0852 26.4894C58.0852 28.0732 56.7966 29.3618 55.2128 29.3618H34.7872V24.5746C34.7872 24.0457 34.3587 23.6171 33.8298 23.6171H26.1702C25.6413 23.6171 25.2128 24.0457 25.2128 24.5746V36.064C25.2128 38.7038 27.3602 40.8512 30 40.8512C32.6398 40.8512 34.7872 38.7038 34.7872 36.064V31.2768H55.2128C56.2897 31.2768 57.2844 30.9192 58.0852 30.3168V46.6324C51.9837 47.0987 47.0986 51.9838 46.6323 58.0853H13.3677C12.9014 51.9838 8.01633 47.0987 1.91484 46.6324V30.3166C2.71547 30.9191 3.71027 31.2766 4.78723 31.2766H22.3404C22.8693 31.2766 23.2978 30.8481 23.2978 30.3192C23.2978 29.7904 22.8693 29.3618 22.3404 29.3618H4.78723C3.20344 29.3618 1.91484 28.0732 1.91484 26.4894V15C1.91484 13.4162 3.20344 12.1276 4.78723 12.1276H55.2128C56.7966 12.1276 58.0852 13.4162 58.0852 15V26.4894ZM27.1276 33.1915V25.5319H32.8723V33.1915H27.1276ZM32.8724 35.1063V36.0637C32.8724 37.6475 31.5838 38.9361 30 38.9361C28.4162 38.9361 27.1276 37.6475 27.1276 36.0637V35.1063H32.8724Z" fill="#C94D00"/>
<path d="M5.74453 16.9148C6.2733 16.9148 6.70195 16.4862 6.70195 15.9574C6.70195 15.4287 6.2733 15 5.74453 15C5.21576 15 4.78711 15.4287 4.78711 15.9574C4.78711 16.4862 5.21576 16.9148 5.74453 16.9148Z" fill="#C94D00"/>
<path d="M9.57461 20.7447C10.1034 20.7447 10.532 20.316 10.532 19.7873C10.532 19.2585 10.1034 18.8298 9.57461 18.8298C9.04584 18.8298 8.61719 19.2585 8.61719 19.7873C8.61719 20.316 9.04584 20.7447 9.57461 20.7447Z" fill="#C94D00"/>
<path d="M50.4257 45.6383C50.9545 45.6383 51.3831 45.2096 51.3831 44.6809C51.3831 44.1521 50.9545 43.7234 50.4257 43.7234C49.8969 43.7234 49.4683 44.1521 49.4683 44.6809C49.4683 45.2096 49.8969 45.6383 50.4257 45.6383Z" fill="#C94D00"/>
</g>
<defs>
<clipPath id="clip0_4670_1359">
<rect width="60" height="60" fill="white"/>
</clipPath>
</defs>
</svg>
