<svg width="60" height="60" viewBox="0 0 60 60" fill="none" xmlns="http://www.w3.org/2000/svg">
<path d="M56.0543 5.0105H13.9666C11.7909 5.0105 10.0209 6.78062 10.0209 8.9562V21.0439H3.9457C1.77 21.0439 0 22.814 0 24.9896V51.0439C0 53.2196 1.77012 54.9896 3.9457 54.9896H46.0334C48.2091 54.9896 49.9791 53.2194 49.9791 51.0439V38.9562H56.0542C58.2299 38.9562 59.9999 37.1861 59.9999 35.0105V8.9562C60 6.7805 58.2299 5.0105 56.0543 5.0105ZM48.1002 51.0439C48.1002 52.1835 47.173 53.1107 46.0334 53.1107H3.9457C2.80605 53.1107 1.87887 52.1835 1.87887 51.0439V24.9896C1.87887 23.8499 2.80605 22.9227 3.9457 22.9227H46.0334C47.173 22.9227 48.1002 23.8499 48.1002 24.9896V51.0439ZM58.1211 35.0105C58.1211 36.1501 57.1939 37.0773 56.0543 37.0773H49.9792V24.9896C49.9792 22.8139 48.2091 21.0439 46.0335 21.0439H11.8998V16.9103H58.1211V35.0105ZM58.1211 15.0313H11.8998V10.8978H58.1211V15.0313ZM58.1211 9.01878H11.8998V8.9562C11.8998 7.81655 12.827 6.88937 13.9666 6.88937H56.0543C57.1939 6.88937 58.1211 7.81655 58.1211 8.9562V9.01878Z" fill="#C94D00"/>
<path d="M12.9646 39.0814H6.95219C6.4334 39.0814 6.0127 39.502 6.0127 40.0209C6.0127 40.5398 6.43328 40.9604 6.95219 40.9604H12.9647C13.4835 40.9604 13.9042 40.5398 13.9042 40.0209C13.9042 39.502 13.4835 39.0814 12.9646 39.0814Z" fill="#C94D00"/>
<path d="M26.9939 43.0897H24.9898C24.471 43.0897 24.0503 43.5103 24.0503 44.0292C24.0503 44.548 24.4709 44.9687 24.9898 44.9687H26.9939C27.5127 44.9687 27.9334 44.5481 27.9334 44.0292C27.9333 43.5104 27.5127 43.0897 26.9939 43.0897Z" fill="#C94D00"/>
<path d="M33.0061 43.0897H31.002C30.4832 43.0897 30.0625 43.5103 30.0625 44.0292C30.0625 44.548 30.4831 44.9687 31.002 44.9687H33.0061C33.5249 44.9687 33.9456 44.5481 33.9456 44.0292C33.9456 43.5104 33.525 43.0897 33.0061 43.0897Z" fill="#C94D00"/>
<path d="M22.9852 39.0814H16.9727C16.4539 39.0814 16.0332 39.502 16.0332 40.0209C16.0332 40.5398 16.4538 40.9604 16.9727 40.9604H22.9852C23.504 40.9604 23.9247 40.5398 23.9247 40.0209C23.9247 39.502 23.504 39.0814 22.9852 39.0814Z" fill="#C94D00"/>
<path d="M33.0062 39.0814H26.9937C26.4749 39.0814 26.0542 39.502 26.0542 40.0209C26.0542 40.5398 26.4748 40.9604 26.9937 40.9604H33.0062C33.525 40.9604 33.9457 40.5398 33.9457 40.0209C33.9457 39.502 33.5251 39.0814 33.0062 39.0814Z" fill="#C94D00"/>
<path d="M13.9668 47.0981H6.95219C6.4334 47.0981 6.0127 47.5187 6.0127 48.0376C6.0127 48.5564 6.43328 48.9771 6.95219 48.9771H13.9668C14.4856 48.9771 14.9063 48.5565 14.9063 48.0376C14.9062 47.5187 14.4856 47.0981 13.9668 47.0981Z" fill="#C94D00"/>
<path d="M22.9856 47.0981H17.9751C17.4563 47.0981 17.0356 47.5187 17.0356 48.0376C17.0356 48.5564 17.4562 48.9771 17.9751 48.9771H22.9856C23.5044 48.9771 23.9251 48.5565 23.9251 48.0376C23.9251 47.5187 23.5044 47.0981 22.9856 47.0981Z" fill="#C94D00"/>
<path d="M43.0272 39.0814H37.0147C36.4959 39.0814 36.0752 39.502 36.0752 40.0209C36.0752 40.5398 36.4958 40.9604 37.0147 40.9604H43.0272C43.546 40.9604 43.9667 40.5398 43.9667 40.0209C43.9667 39.502 43.546 39.0814 43.0272 39.0814Z" fill="#C94D00"/>
<path d="M12.9646 29.0605H8.95633C7.33316 29.0605 6.0127 30.381 6.0127 32.0041V34.0083C6.0127 35.6314 7.33316 36.9519 8.95633 36.9519H12.9647C14.5879 36.9519 15.9084 35.6314 15.9084 34.0083V32.0041C15.9082 30.3811 14.5878 29.0605 12.9646 29.0605ZM14.0294 34.0084C14.0294 34.5955 13.5517 35.0731 12.9646 35.0731H8.95633C8.36922 35.0731 7.89156 34.5955 7.89156 34.0084V32.0042C7.89156 31.4171 8.36922 30.9395 8.95633 30.9395H12.9647C13.5518 30.9395 14.0295 31.4171 14.0295 32.0042L14.0294 34.0084Z" fill="#C94D00"/>
<path d="M40.0207 26.0543C39.1069 26.0543 38.251 26.3044 37.5155 26.738C36.7802 26.3043 35.9241 26.0543 35.0103 26.0543C32.282 26.0543 30.0625 28.274 30.0625 31.0021C30.0625 33.7302 32.2821 35.9499 35.0103 35.9499C35.9241 35.9499 36.78 35.6998 37.5155 35.2662C38.251 35.6999 39.1069 35.9499 40.0207 35.9499C42.749 35.9499 44.9685 33.7302 44.9685 31.0021C44.9685 28.274 42.749 26.0543 40.0207 26.0543ZM36.0149 33.9013C35.6999 34.0108 35.3621 34.071 35.0103 34.071C33.3181 34.071 31.9414 32.6943 31.9414 31.0021C31.9414 29.3099 33.3181 27.9332 35.0103 27.9332C35.3622 27.9332 35.6999 27.9934 36.0149 28.1029C35.4232 28.9181 35.073 29.9196 35.073 31.0021C35.073 32.0846 35.4232 33.0858 36.0149 33.9013ZM37.5156 32.7714C37.1611 32.2709 36.952 31.6607 36.952 31.0021C36.952 30.3435 37.1611 29.7333 37.5156 29.2328C37.8701 29.7333 38.0793 30.3435 38.0793 31.0021C38.0793 31.6607 37.8701 32.2709 37.5156 32.7714ZM40.0207 34.071C39.6688 34.071 39.3311 34.0108 39.0161 33.9013C39.6078 33.086 39.958 32.0846 39.958 31.0021C39.958 29.9196 39.6078 28.9184 39.0161 28.1029C39.3311 27.9934 39.6689 27.9332 40.0207 27.9332C41.7129 27.9332 43.0896 29.3099 43.0896 31.0021C43.0896 32.6943 41.7129 34.071 40.0207 34.071Z" fill="#C94D00"/>
</svg>
