<svg width="60" height="60" viewBox="0 0 60 60" fill="none" xmlns="http://www.w3.org/2000/svg">
<path d="M7.92951 46.8225C7.64076 46.8225 7.35201 46.6875 7.17014 46.4344C-0.937362 35.2012 0.300139 19.9256 10.112 10.1119C21.0808 -0.853127 38.9214 -0.853127 49.8901 10.1119C50.2558 10.4775 50.2558 11.0719 49.8901 11.4375C49.5245 11.8031 48.9301 11.8031 48.5645 11.4375C38.327 1.20562 21.6733 1.20562 11.4376 11.4375C2.28014 20.5987 1.12514 34.8544 8.68889 45.3356C8.99264 45.7575 8.89701 46.3425 8.47889 46.6444C8.31201 46.7644 8.11889 46.8225 7.92951 46.8225Z" fill="#C94D00"/>
<path d="M30.0002 58.1119C22.7965 58.1119 15.5946 55.3706 10.1121 49.8881C9.74648 49.5225 9.74648 48.9281 10.1121 48.5625C10.4777 48.1969 11.0721 48.1969 11.4377 48.5625C21.6734 58.7944 38.329 58.7944 48.5646 48.5625C57.7015 39.42 58.8696 25.1794 51.3396 14.7019C51.0377 14.28 51.1352 13.695 51.5534 13.3931C51.9752 13.0913 52.5602 13.1869 52.8621 13.6069C60.9302 24.8325 59.6796 40.0913 49.8884 49.8881C44.4059 55.3706 37.204 58.11 30.0002 58.1119Z" fill="#C94D00"/>
<path d="M10.7739 54.7763C10.2564 54.7763 9.83643 54.3563 9.83643 53.8388V49.2263C9.83643 48.7088 10.2564 48.2888 10.7739 48.2888H15.3883C15.9058 48.2888 16.3258 48.7088 16.3258 49.2263C16.3258 49.7438 15.9058 50.1638 15.3883 50.1638H11.7114V53.8388C11.7114 54.3563 11.2914 54.7763 10.7739 54.7763Z" fill="#C94D00"/>
<path d="M49.2262 11.7113H44.6118C44.0943 11.7113 43.6743 11.2913 43.6743 10.7738C43.6743 10.2563 44.0943 9.83625 44.6118 9.83625H48.2887V6.16125C48.2887 5.64375 48.7087 5.22375 49.2262 5.22375C49.7437 5.22375 50.1637 5.64375 50.1637 6.16125V10.7738C50.1637 11.2913 49.7437 11.7113 49.2262 11.7113Z" fill="#C94D00"/>
<path d="M30 50.625C18.6281 50.625 9.375 41.3719 9.375 30C9.375 18.6281 18.6281 9.375 30 9.375C41.3719 9.375 50.625 18.6281 50.625 30C50.625 41.3719 41.3719 50.625 30 50.625ZM30 11.25C19.6613 11.25 11.25 19.6613 11.25 30C11.25 40.3387 19.6613 48.75 30 48.75C40.3387 48.75 48.75 40.3387 48.75 30C48.75 19.6613 40.3387 11.25 30 11.25Z" fill="#C94D00"/>
<path d="M30 50.625C18.6281 50.625 9.375 41.3719 9.375 30C9.375 18.6281 18.6281 9.375 30 9.375C41.3719 9.375 50.625 18.6281 50.625 30C50.625 41.3719 41.3719 50.625 30 50.625ZM30 11.25C19.6613 11.25 11.25 19.6613 11.25 30C11.25 40.3387 19.6613 48.75 30 48.75C40.3387 48.75 48.75 40.3387 48.75 30C48.75 19.6613 40.3387 11.25 30 11.25Z" fill="#C94D00"/>
<path d="M44.336 44.4C44.2479 44.4 44.1598 44.3869 44.0716 44.3607C34.9198 41.6719 25.076 41.6719 15.9241 44.3607C15.4291 44.505 14.906 44.2257 14.7616 43.725C14.6154 43.2282 14.8985 42.7088 15.3973 42.5625C24.8904 39.7725 35.1073 39.7725 44.5985 42.5625C45.0973 42.7088 45.3804 43.2282 45.2341 43.725C45.1179 44.1357 44.7429 44.4 44.336 44.4Z" fill="#C94D00"/>
<path d="M29.9998 19.5413C26.5835 19.5413 23.1579 19.2 19.8129 18.5288C19.3048 18.4256 18.9767 17.9325 19.0779 17.4244C19.181 16.9163 19.6854 16.59 20.1823 16.6894C28.0629 18.2756 36.3317 17.9119 44.0717 15.6375C44.5648 15.4894 45.0898 15.7725 45.2342 16.2731C45.3804 16.77 45.0973 17.2894 44.5985 17.4356C39.8548 18.8325 34.9423 19.5413 29.9998 19.5413Z" fill="#C94D00"/>
<path d="M30.9449 50.5781C30.6468 50.5781 30.3524 50.4356 30.1705 50.1694C29.8799 49.74 29.9887 49.1587 30.4162 48.8662C36.7049 44.5744 40.4587 37.5225 40.4587 30C40.4587 22.4775 36.7049 15.4275 30.4162 11.1337C29.9887 10.8412 29.8799 10.2581 30.1705 9.8306C30.463 9.4031 31.0462 9.2981 31.4737 9.58497C38.2743 14.2275 42.3337 21.8587 42.3337 30C42.3337 38.1412 38.2743 45.7725 31.4737 50.415C31.3105 50.5237 31.1287 50.5781 30.9449 50.5781Z" fill="#C94D00"/>
<path d="M29.0548 50.5782C28.871 50.5782 28.6891 50.5257 28.526 50.415C21.7254 45.7725 17.666 38.1413 17.666 30C17.666 24.1257 19.7829 18.4332 23.6248 13.9688C23.9641 13.575 24.5566 13.5357 24.9466 13.8694C25.3385 14.2069 25.3835 14.7994 25.046 15.1913C21.4966 19.3144 19.541 24.5738 19.541 29.9982C19.541 37.5207 23.2948 44.5707 29.5835 48.8644C30.011 49.1569 30.1198 49.74 29.8291 50.1675C29.6491 50.4338 29.3529 50.5782 29.0548 50.5782Z" fill="#C94D00"/>
<path d="M30 49.5881C29.4825 49.5881 29.0625 49.1681 29.0625 48.6506V11.3494C29.0625 10.8319 29.4825 10.4119 30 10.4119C30.5175 10.4119 30.9375 10.8319 30.9375 11.3494V48.6525C30.9375 49.17 30.5175 49.5881 30 49.5881Z" fill="#C94D00"/>
<path d="M48.6509 30.9375H14.1621C13.6446 30.9375 13.2246 30.5175 13.2246 30C13.2246 29.4825 13.6446 29.0625 14.1621 29.0625H48.6527C49.1702 29.0625 49.5902 29.4825 49.5902 30C49.5902 30.5175 49.1702 30.9375 48.6509 30.9375Z" fill="#C94D00"/>
</svg>
