<svg width="60" height="60" viewBox="0 0 60 60" fill="none" xmlns="http://www.w3.org/2000/svg">
<g clip-path="url(#clip0_4670_982)">
<path d="M51.5583 51.9843C51.5583 49.8172 49.7952 48.054 47.6278 48.054H37.8087C37.2798 48.054 36.8513 48.4826 36.8513 49.0114C36.8513 49.5401 37.2798 49.9688 37.8087 49.9688H47.6278C48.7392 49.9688 49.6435 50.873 49.6435 51.9844C49.6435 52.2085 49.6047 52.427 49.5342 52.6341C48.9692 52.3194 48.3194 52.1393 47.6279 52.1393H34.2172C35.1184 50.6303 34.9204 48.6427 33.6222 47.3446L22.3667 36.0891C20.742 34.4643 17.6694 33.1917 15.3719 33.1917H1.58779C1.05904 33.1917 0.630371 33.6203 0.630371 34.1491C0.630371 34.6778 1.05904 35.1065 1.58779 35.1065H15.3717C17.1628 35.1065 19.746 36.1764 21.0127 37.443L32.2681 48.6985C33.0539 49.4843 33.0539 50.763 32.2681 51.5488C31.4824 52.3347 30.2036 52.3347 29.4177 51.5488L20.2702 42.4013C19.8962 42.0274 19.29 42.0274 18.9162 42.4013C18.5422 42.7752 18.5422 43.3815 18.9162 43.7553L28.0637 52.9028C28.8122 53.6513 29.7898 54.0331 30.7728 54.0504C30.796 54.0521 30.8193 54.0541 30.8428 54.0541H47.6277C48.7391 54.0541 49.6433 54.9583 49.6433 56.0696C49.6433 57.181 48.7391 58.0852 47.6287 58.0852L28.8854 58.0686C28.3766 58.0682 27.5131 57.8431 27.06 57.5943L8.00791 45.829C7.99678 45.8221 7.98553 45.8156 7.97404 45.8091C7.23646 45.3944 6.04221 45.0817 5.19588 45.0817H1.58779C1.05904 45.0817 0.630371 45.5104 0.630371 46.0392C0.630371 46.5679 1.05904 46.9966 1.58779 46.9966H5.19588C5.70459 46.9966 6.56756 47.221 7.02037 47.4698L26.0725 59.2351C26.0836 59.242 26.095 59.2485 26.1063 59.2551C26.8437 59.6696 28.0377 59.9827 28.8837 59.9835L47.6278 60.0001C49.7952 60.0001 51.5583 58.2368 51.5583 56.0696C51.5583 55.3224 51.3485 54.6234 50.9851 54.0278C51.3578 53.417 51.5583 52.714 51.5583 51.9843Z" fill="#C94D00"/>
<path d="M41.6746 0C31.9177 0 23.98 7.93793 23.98 17.6947C23.98 23.9244 27.2837 29.7182 32.6267 32.9033L34.3342 37.6877V41.3518C34.3342 43.5585 35.9959 45.6859 36.0666 45.7753C36.2482 46.005 36.5249 46.1391 36.8178 46.1391H46.5317C46.8245 46.1391 47.1012 46.005 47.2828 45.7753C47.3536 45.6858 49.0152 43.5584 49.0152 41.3518V37.6876L50.7229 32.9032C56.0659 29.718 59.3696 23.9243 59.3696 17.6946C59.3694 7.93781 51.4316 0 41.6746 0ZM46.0388 44.2241H37.3089C37.0062 43.7661 36.6089 43.0532 36.3973 42.3093H46.9506C46.7379 43.0509 46.3408 43.7652 46.0388 44.2241ZM47.1001 40.3943H36.249V38.4795H47.1001V40.3943ZM49.4651 31.42C49.2658 31.5333 49.1139 31.7145 49.0369 31.9303L47.3828 36.5646H35.9665L34.3125 31.9303C34.2354 31.7145 34.0835 31.5333 33.8843 31.42C28.9561 28.6164 25.8948 23.3572 25.8948 17.6947C25.8948 8.99379 32.9735 1.91484 41.6746 1.91484C50.3756 1.91484 57.4545 8.99379 57.4545 17.6947C57.4546 23.3572 54.3932 28.6164 49.4651 31.42Z" fill="#C94D00"/>
<path d="M47.9948 18.8844C46.1617 17.5059 43.9762 16.7772 41.6747 16.7772C39.3772 16.7772 37.1926 17.5068 35.3566 18.8872C35.0217 19.1391 34.8895 19.5796 35.0304 19.9744L38.1639 28.7513V33.6922C38.1639 34.2209 38.5924 34.6496 39.1213 34.6496C39.6501 34.6496 40.0787 34.2209 40.0787 33.6922V29.5433H43.2702V33.6922C43.2702 34.2209 43.6987 34.6496 44.2276 34.6496C44.7565 34.6496 45.185 34.2209 45.185 33.6922V28.7521L48.3208 19.9716C48.4619 19.5769 48.3299 19.1362 47.9948 18.8844ZM43.2703 27.6283H40.0788V27.3092C40.0788 26.4293 40.7947 25.7135 41.6747 25.7135C42.5545 25.7135 43.2703 26.4293 43.2703 27.3092V27.6283ZM44.4388 25.1487C43.7957 24.3276 42.7962 23.7985 41.6747 23.7985C40.5534 23.7985 39.554 24.3275 38.9108 25.1483L37.0805 20.0214C38.4547 19.1497 40.0294 18.6921 41.6747 18.6921C43.3232 18.6921 44.8985 19.1487 46.2709 20.0186L44.4388 25.1487Z" fill="#C94D00"/>
</g>
<defs>
<clipPath id="clip0_4670_982">
<rect width="60" height="60" fill="white"/>
</clipPath>
</defs>
</svg>
