<svg width="163" height="68" viewBox="0 0 163 68" fill="none" xmlns="http://www.w3.org/2000/svg">
<path fill-rule="evenodd" clip-rule="evenodd" d="M30.4219 33.563L36.6855 39.8267L42.9492 33.563L36.6855 27.2994L30.4219 33.563ZM36.6855 44.0024L47.1249 33.563L36.6855 23.1236L26.2461 33.563L36.6855 44.0024Z" fill="#C94D00"/>
<path fill-rule="evenodd" clip-rule="evenodd" d="M17.2993 46.6861L23.563 52.9497L29.8266 46.6861L23.563 40.4224L17.2993 46.6861ZM23.563 57.1255L34.0024 46.6861L23.563 36.2467L13.1236 46.6861L23.563 57.1255Z" fill="#C94D00"/>
<path fill-rule="evenodd" clip-rule="evenodd" d="M17.2993 20.4395L23.563 26.7031L29.8266 20.4395L23.563 14.1759L17.2993 20.4395ZM23.563 30.8789L34.0024 20.4395L23.563 10.0001L13.1236 20.4395L23.563 30.8789Z" fill="#C94D00"/>
<path fill-rule="evenodd" clip-rule="evenodd" d="M4.1763 33.563L10.4399 39.8267L16.7036 33.563L10.4399 27.2994L4.1763 33.563ZM10.4399 44.0024L20.8793 33.563L10.4399 23.1236L0.000538775 33.563L10.4399 44.0024Z" fill="#C94D00"/>
<path d="M57.5781 15.8394H75.424V19.2877H74.6775C74.6775 18.0079 74.4405 17.2614 73.9665 17.0481H68.1364V35.1784C68.3497 35.6524 69.0962 35.8894 70.376 35.8894V36.6359H62.6262V35.8894C63.906 35.8894 64.6525 35.6524 64.8658 35.1784V17.0481H59.0357C58.5617 17.2614 58.3247 18.0079 58.3247 19.2877H57.5781V15.8394Z" fill="#C94D00"/>
<path d="M89.0809 36.6359V35.8894C90.1711 35.8894 90.8584 35.7472 91.1428 35.4628L89.152 30.0237H82.3265L80.4779 35.2495C80.7149 35.6761 81.4496 35.8894 82.682 35.8894V36.6359H76.8518V35.8894C78.179 35.8894 78.9256 35.6405 79.0915 35.1428L85.9881 15.8394H87.6945L94.5911 35.1428C94.757 35.6405 95.5154 35.8894 96.8663 35.8894V36.6359H89.0809ZM85.7037 20.5675L82.7531 28.8505H88.7254L85.7037 20.5675Z" fill="#C94D00"/>
<path d="M109.401 15.8394V16.5859C108.287 16.5859 107.6 16.7281 107.339 17.0125L111.214 23.8025L115.444 17.1547C115.207 16.7755 114.485 16.5859 113.276 16.5859V15.8394H119.106V16.5859C117.945 16.5859 117.234 16.7874 116.973 17.1903L111.925 25.0467L117.72 35.1428C117.98 35.6405 118.739 35.8894 119.995 35.8894V36.6359H112.209V35.8894C113.323 35.8894 114.011 35.7472 114.271 35.4628L110.041 28.0329L105.348 35.3206C105.585 35.6998 106.308 35.8894 107.517 35.8894V36.6359H101.687V35.8894C102.872 35.8894 103.63 35.6287 103.962 35.1073L109.294 26.7887L103.891 17.2969C103.63 16.8229 102.872 16.5859 101.616 16.5859V15.8394H109.401Z" fill="#C94D00"/>
<path d="M135.067 35.7827C136.655 35.7827 137.982 35.1191 139.049 33.7919C140.139 32.4648 140.684 30.711 140.684 28.5306V17.2969C140.471 16.8229 139.724 16.5859 138.444 16.5859V15.8394H144.132V16.5859C142.853 16.5859 142.106 16.8229 141.893 17.2969V27.8196C141.893 30.9006 141.205 33.1994 139.831 34.7162C138.48 36.233 136.774 36.9914 134.712 36.9914C129.024 36.9914 126.18 33.9341 126.18 27.8196V17.2969C125.966 16.8229 125.22 16.5859 123.94 16.5859V15.8394H131.69V16.5859C130.41 16.5859 129.664 16.8229 129.45 17.2969V28.3173C129.45 30.6636 129.972 32.5003 131.015 33.8275C132.057 35.131 133.408 35.7827 135.067 35.7827Z" fill="#C94D00"/>
<path d="M155.997 36.9914C154.835 36.9914 153.65 36.8137 152.442 36.4582C151.233 36.1027 150.605 35.9249 150.558 35.9249C150.415 35.9249 150.249 35.996 150.06 36.1382C149.87 36.2804 149.775 36.4463 149.775 36.6359H148.958V31.6945H149.74C150.001 33.1165 150.7 34.1593 151.837 34.8229C152.999 35.4628 154.314 35.7827 155.783 35.7827C157.039 35.7827 158.07 35.4983 158.876 34.9295C159.682 34.3607 160.085 33.5075 160.085 32.37C160.085 31.8486 159.966 31.3746 159.729 30.948C159.516 30.5214 159.172 30.1303 158.698 29.7748C158.248 29.3956 157.81 29.0875 157.383 28.8505C156.956 28.5898 156.399 28.2817 155.712 27.9263C155.049 27.5471 154.539 27.2508 154.184 27.0375C153.354 26.5161 152.738 26.1251 152.335 25.8644C151.932 25.58 151.411 25.1652 150.771 24.6201C150.155 24.075 149.704 23.5063 149.42 22.9138C149.136 22.3213 148.993 21.6814 148.993 20.9941C148.993 19.5958 149.633 18.3279 150.913 17.1903C152.193 16.0527 153.627 15.4839 155.215 15.4839C155.902 15.4839 156.755 15.6616 157.774 16.0171C158.793 16.3726 159.374 16.5504 159.516 16.5504C159.8 16.5504 159.943 16.3134 159.943 15.8394H160.76L161.116 20.3542H160.334C160.191 19.3114 159.67 18.4464 158.769 17.7591C157.869 17.0481 156.696 16.6926 155.25 16.6926C154.16 16.6926 153.283 17.0481 152.619 17.7591C151.979 18.4464 151.66 19.1455 151.66 19.8565C151.66 20.3068 151.766 20.7334 151.979 21.1363C152.193 21.5155 152.525 21.871 152.975 22.2028C153.425 22.5346 153.852 22.8308 154.255 23.0915C154.658 23.3285 155.191 23.6247 155.854 23.9802C156.542 24.3357 157.063 24.6201 157.419 24.8334C158.39 25.4259 159.089 25.8644 159.516 26.1488C159.943 26.4332 160.488 26.8716 161.151 27.4641C161.839 28.0566 162.313 28.6728 162.573 29.3127C162.858 29.9289 163 30.6162 163 31.3746C163 33.1283 162.289 34.5029 160.867 35.4983C159.445 36.4937 157.821 36.9914 155.997 36.9914Z" fill="#C94D00"/>
<path d="M63.6582 45.6917H64.6255V50.2518H66.9363V51.127H63.6582V45.6917Z" fill="#6A6A6A"/>
<path d="M72.2377 45.6917H73.0745L75.416 51.127H74.3105L73.8038 49.8833H71.447L70.9557 51.127H69.8732L72.2377 45.6917ZM73.466 49.0542L72.6293 46.8432L71.7771 49.0542H73.466Z" fill="#6A6A6A"/>
<path d="M78.0591 45.6917H79.1186L80.1396 49.6069H80.155L81.3756 45.6917H82.3276L83.5252 49.6069H83.5406L84.6077 45.6917H85.5903L84.0089 51.127H83.0876L81.8286 46.9891H81.8132L80.5542 51.127H79.6636L78.0591 45.6917Z" fill="#6A6A6A"/>
<path d="M97.953 49.8449L99.1276 51.127H97.9376L97.3619 50.5052C97.1418 50.7662 96.9064 50.9581 96.6556 51.0809C96.4048 51.2038 96.1054 51.2652 95.7574 51.2652C95.5168 51.2652 95.2839 51.2294 95.0588 51.1577C94.8387 51.0912 94.6442 50.9914 94.4753 50.8583C94.3064 50.7201 94.1708 50.5538 94.0684 50.3593C93.9661 50.1597 93.9149 49.9294 93.9149 49.6684C93.9149 49.4841 93.9456 49.3152 94.007 49.1617C94.0684 49.003 94.1503 48.8597 94.2527 48.7318C94.3601 48.5987 94.4855 48.4835 94.6288 48.3863C94.7721 48.2839 94.9257 48.202 95.0895 48.1406C95.0025 48.0434 94.9206 47.9487 94.8438 47.8566C94.7721 47.7645 94.7082 47.6698 94.6519 47.5725C94.5956 47.4753 94.5495 47.3704 94.5137 47.2578C94.483 47.1452 94.4676 47.0223 94.4676 46.8893C94.4676 46.6692 94.5086 46.4747 94.5905 46.3058C94.6775 46.1369 94.7926 45.9987 94.9359 45.8913C95.0792 45.7787 95.2456 45.6942 95.4349 45.6379C95.6243 45.5816 95.8213 45.5535 96.0261 45.5535C96.2308 45.5535 96.4253 45.5791 96.6095 45.6302C96.7938 45.6814 96.955 45.7607 97.0932 45.8682C97.2365 45.9706 97.3491 46.1037 97.431 46.2674C97.518 46.4312 97.5615 46.6231 97.5615 46.8432C97.5615 47.0121 97.5308 47.1682 97.4693 47.3115C97.4079 47.4497 97.326 47.5776 97.2237 47.6954C97.1213 47.808 97.0036 47.9129 96.8705 48.0101C96.7426 48.1022 96.6121 48.1816 96.479 48.2481L97.3542 49.1924L97.9607 48.2711H99.0431L97.953 49.8449ZM96.0414 46.3826C95.8623 46.3826 95.7087 46.4338 95.5808 46.5361C95.4528 46.6334 95.3889 46.7639 95.3889 46.9277C95.3889 46.9993 95.4042 47.071 95.4349 47.1426C95.4656 47.2091 95.5066 47.2782 95.5578 47.3499C95.6089 47.4164 95.6627 47.4804 95.719 47.5418C95.7804 47.6032 95.8418 47.6621 95.9032 47.7184C95.98 47.6774 96.0619 47.6314 96.1489 47.5802C96.2359 47.5239 96.3152 47.4625 96.3869 47.396C96.4637 47.3243 96.5251 47.2475 96.5711 47.1656C96.6172 47.0838 96.6402 46.9916 96.6402 46.8893C96.6402 46.7408 96.5814 46.6206 96.4637 46.5285C96.3459 46.4312 96.2052 46.3826 96.0414 46.3826ZM95.6729 48.6857C95.5808 48.742 95.4912 48.8009 95.4042 48.8623C95.3172 48.9186 95.2379 48.9825 95.1662 49.0542C95.0946 49.1259 95.0357 49.2077 94.9897 49.2999C94.9487 49.392 94.9282 49.4969 94.9282 49.6146C94.9282 49.7323 94.9513 49.8424 94.9973 49.9447C95.0434 50.0471 95.1048 50.1341 95.1816 50.2058C95.2635 50.2774 95.3556 50.3337 95.458 50.3746C95.5603 50.4156 95.6704 50.4361 95.7881 50.4361C95.9979 50.4361 96.1822 50.3798 96.3408 50.2672C96.4995 50.1546 96.6479 50.0317 96.7861 49.8987L95.6729 48.6857Z" fill="#6A6A6A"/>
<path d="M107.796 45.6917H111.304V46.5668H108.763V47.9948H111.158V48.8699H108.763V51.127H107.796V45.6917Z" fill="#6A6A6A"/>
<path d="M115.022 45.6917H115.989V51.127H115.022V45.6917Z" fill="#6A6A6A"/>
<path d="M120.022 45.6917H121.304L123.937 49.7298H123.952V45.6917H124.92V51.127H123.691L121.004 46.9584H120.989V51.127H120.022V45.6917Z" fill="#6A6A6A"/>
<path d="M130.73 45.6917H131.567L133.909 51.127H132.803L132.297 49.8833H129.94L129.448 51.127H128.366L130.73 45.6917ZM131.959 49.0542L131.122 46.8432L130.27 49.0542H131.959Z" fill="#6A6A6A"/>
<path d="M137.353 45.6917H138.635L141.269 49.7298H141.284V45.6917H142.251V51.127H141.023L138.336 46.9584H138.321V51.127H137.353V45.6917Z" fill="#6A6A6A"/>
<path d="M150.035 46.966C149.835 46.7511 149.641 46.6078 149.452 46.5361C149.267 46.4645 149.081 46.4286 148.891 46.4286C148.61 46.4286 148.354 46.4798 148.123 46.5822C147.898 46.6794 147.704 46.8176 147.54 46.9968C147.376 47.1708 147.248 47.3755 147.156 47.6109C147.069 47.8463 147.026 48.0997 147.026 48.3709C147.026 48.6627 147.069 48.9314 147.156 49.177C147.248 49.4227 147.376 49.6351 147.54 49.8142C147.704 49.9934 147.898 50.1341 148.123 50.2365C148.354 50.3388 148.61 50.39 148.891 50.39C149.111 50.39 149.324 50.3388 149.528 50.2365C149.738 50.129 149.933 49.9601 150.112 49.7298L150.91 50.2979C150.665 50.6357 150.365 50.8813 150.012 51.0349C149.659 51.1884 149.283 51.2652 148.883 51.2652C148.464 51.2652 148.077 51.1987 147.724 51.0656C147.376 50.9274 147.074 50.7355 146.818 50.4898C146.568 50.239 146.371 49.9396 146.227 49.5916C146.084 49.2436 146.012 48.8572 146.012 48.4324C146.012 47.9973 146.084 47.6032 146.227 47.2501C146.371 46.8918 146.568 46.5873 146.818 46.3365C147.074 46.0857 147.376 45.8938 147.724 45.7607C148.077 45.6226 148.464 45.5535 148.883 45.5535C149.252 45.5535 149.592 45.62 149.905 45.7531C150.222 45.881 150.516 46.1011 150.787 46.4133L150.035 46.966Z" fill="#6A6A6A"/>
<path d="M154.4 45.6917H158V46.5668H155.367V47.9026H157.862V48.7778H155.367V50.2518H158.139V51.127H154.4V45.6917Z" fill="#6A6A6A"/>
</svg>
