<svg width="80" height="80" viewBox="0 0 80 80" fill="none" xmlns="http://www.w3.org/2000/svg">
<path d="M60.0417 21.3778H55.9499V2.14328C55.9499 1.68125 55.6956 1.25672 55.2883 1.03891C54.8811 0.820781 54.3867 0.844687 54.0025 1.10109L52.025 2.41937L48.7114 0.210469C48.2905 -0.0701562 47.7425 -0.0701562 47.3219 0.210469L44.0083 2.41937L40.6949 0.210469C40.2739 -0.0701562 39.7259 -0.0701562 39.3053 0.210469L35.9917 2.41937L32.6781 0.210469C32.2572 -0.0701562 31.7092 -0.0701562 31.2886 0.210469L27.975 2.41937L25.9975 1.10109C25.6131 0.844687 25.1189 0.820781 24.7117 1.03891C24.3044 1.25688 24.0502 1.68125 24.0502 2.14328V21.3778H19.9583C17.7941 21.3778 16.0334 23.1384 16.0334 25.3027V76.0752C16.0334 78.2394 17.7941 80 19.9583 80H60.0417C62.2059 80 63.9666 78.2394 63.9666 76.0752V25.3027C63.9666 23.1386 62.2059 21.3778 60.0417 21.3778ZM26.5553 4.48391L27.2802 4.96703C27.7011 5.24766 28.2492 5.24766 28.6697 4.96703L31.9833 2.75797L35.2969 4.96703C35.7178 5.24766 36.2658 5.24766 36.6864 4.96703L40 2.75797L43.3136 4.96703C43.7345 5.24766 44.2825 5.24766 44.7031 4.96703L48.0167 2.75797L51.3303 4.96703C51.7513 5.24766 52.2994 5.24766 52.7199 4.96703L53.4447 4.48391V26.7223H26.5553V4.48391ZM61.4614 76.0752C61.4614 76.858 60.8245 77.4948 60.0417 77.4948H19.9583C19.1755 77.4948 18.5386 76.858 18.5386 76.0752V25.3027C18.5386 24.5198 19.1755 23.883 19.9583 23.883H24.0502V26.7222H22.6305C21.9388 26.7222 21.3778 27.283 21.3778 27.9748C21.3778 28.6667 21.9386 29.2275 22.6305 29.2275H57.3695C58.0613 29.2275 58.6222 28.6667 58.6222 27.9748C58.6222 27.283 58.0614 26.7222 57.3695 26.7222H55.9499V23.883H60.0417C60.8245 23.883 61.4614 24.5198 61.4614 25.3027V76.0752Z" fill="#C94D00"/>
<path d="M56.0336 32.0669H23.9667C22.5392 32.0669 21.3779 33.2281 21.3779 34.6556V41.3363C21.3779 42.7638 22.5392 43.925 23.9667 43.925H56.0336C57.4611 43.925 58.6223 42.7638 58.6223 41.3363V34.6556C58.6223 33.2281 57.4611 32.0669 56.0336 32.0669ZM56.117 41.3361C56.117 41.3822 56.0797 41.4195 56.0336 41.4195H23.9667C23.9206 41.4195 23.8832 41.3822 23.8832 41.3361V34.6555C23.8832 34.6094 23.9206 34.5721 23.9667 34.5721H56.0336C56.0797 34.5721 56.117 34.6094 56.117 34.6555V41.3361Z" fill="#C94D00"/>
<path d="M30.6471 46.764H25.3026C23.8751 46.764 22.7139 47.9253 22.7139 49.3528V52.025C22.7139 53.4525 23.8751 54.6137 25.3026 54.6137H30.6471C32.0746 54.6137 33.2359 53.4525 33.2359 52.025V49.3528C33.2359 47.9253 32.0746 46.764 30.6471 46.764ZM30.7306 52.025C30.7306 52.0711 30.6932 52.1084 30.6471 52.1084H25.3026C25.2565 52.1084 25.2192 52.0711 25.2192 52.025V49.3528C25.2192 49.3067 25.2565 49.2694 25.3026 49.2694H30.6471C30.6932 49.2694 30.7306 49.3067 30.7306 49.3528V52.025Z" fill="#C94D00"/>
<path d="M54.6974 46.764H49.3529C47.9254 46.764 46.7642 47.9253 46.7642 49.3528V52.025C46.7642 53.4525 47.9254 54.6137 49.3529 54.6137H54.6974C56.1249 54.6137 57.2862 53.4525 57.2862 52.025V49.3528C57.286 47.9253 56.1248 46.764 54.6974 46.764ZM54.7809 52.025C54.7809 52.0711 54.7435 52.1084 54.6974 52.1084H49.3529C49.3068 52.1084 49.2695 52.0711 49.2695 52.025V49.3528C49.2695 49.3067 49.3068 49.2694 49.3529 49.2694H54.6974C54.7435 49.2694 54.7809 49.3067 54.7809 49.3528V52.025Z" fill="#C94D00"/>
<path d="M42.6723 46.764H37.3278C35.9003 46.764 34.739 47.9253 34.739 49.3528V52.025C34.739 53.4525 35.9003 54.6137 37.3278 54.6137H42.6723C44.0998 54.6137 45.2611 53.4525 45.2611 52.025V49.3528C45.2611 47.9253 44.0998 46.764 42.6723 46.764ZM42.7559 52.025C42.7559 52.0711 42.7185 52.1084 42.6725 52.1084H37.3279C37.2818 52.1084 37.2445 52.0711 37.2445 52.025V49.3528C37.2445 49.3067 37.2818 49.2694 37.3279 49.2694H42.6725C42.7185 49.2694 42.7559 49.3067 42.7559 49.3528V52.025Z" fill="#C94D00"/>
<path d="M30.6471 56.1169H25.3026C23.8751 56.1169 22.7139 57.2781 22.7139 58.7056V61.3778C22.7139 62.8053 23.8751 63.9666 25.3026 63.9666H30.6471C32.0746 63.9666 33.2359 62.8053 33.2359 61.3778V58.7056C33.2359 57.2781 32.0746 56.1169 30.6471 56.1169ZM30.7306 61.3778C30.7306 61.4239 30.6932 61.4613 30.6471 61.4613H25.3026C25.2565 61.4613 25.2192 61.4239 25.2192 61.3778V58.7056C25.2192 58.6595 25.2565 58.6222 25.3026 58.6222H30.6471C30.6932 58.6222 30.7306 58.6595 30.7306 58.7056V61.3778Z" fill="#C94D00"/>
<path d="M54.6974 56.1169H49.3529C47.9254 56.1169 46.7642 57.2781 46.7642 58.7056V61.3778C46.7642 62.8053 47.9254 63.9666 49.3529 63.9666H54.6974C56.1249 63.9666 57.2862 62.8053 57.2862 61.3778V58.7056C57.286 57.2781 56.1248 56.1169 54.6974 56.1169ZM54.7809 61.3778C54.7809 61.4239 54.7435 61.4613 54.6974 61.4613H49.3529C49.3068 61.4613 49.2695 61.4239 49.2695 61.3778V58.7056C49.2695 58.6595 49.3068 58.6222 49.3529 58.6222H54.6974C54.7435 58.6222 54.7809 58.6595 54.7809 58.7056V61.3778Z" fill="#C94D00"/>
<path d="M42.6723 56.1169H37.3278C35.9003 56.1169 34.739 57.2781 34.739 58.7056V61.3778C34.739 62.8053 35.9003 63.9666 37.3278 63.9666H42.6723C44.0998 63.9666 45.2611 62.8053 45.2611 61.3778V58.7056C45.2611 57.2781 44.0998 56.1169 42.6723 56.1169ZM42.7559 61.3778C42.7559 61.4239 42.7185 61.4613 42.6725 61.4613H37.3279C37.2818 61.4613 37.2445 61.4239 37.2445 61.3778V58.7056C37.2445 58.6595 37.2818 58.6222 37.3279 58.6222H42.6725C42.7185 58.6222 42.7559 58.6595 42.7559 58.7056V61.3778Z" fill="#C94D00"/>
<path d="M30.6471 65.4697H25.3026C23.8751 65.4697 22.7139 66.6309 22.7139 68.0584V70.7306C22.7139 72.1581 23.8751 73.3194 25.3026 73.3194H30.6471C32.0746 73.3194 33.2359 72.1581 33.2359 70.7306V68.0584C33.2359 66.6309 32.0746 65.4697 30.6471 65.4697ZM30.7306 70.7306C30.7306 70.7767 30.6932 70.814 30.6471 70.814H25.3026C25.2565 70.814 25.2192 70.7767 25.2192 70.7306V68.0584C25.2192 68.0123 25.2565 67.975 25.3026 67.975H30.6471C30.6932 67.975 30.7306 68.0123 30.7306 68.0584V70.7306Z" fill="#C94D00"/>
<path d="M54.6974 65.4697H49.3529C47.9254 65.4697 46.7642 66.6309 46.7642 68.0584V70.7306C46.7642 72.1581 47.9254 73.3194 49.3529 73.3194H54.6974C56.1249 73.3194 57.2862 72.1581 57.2862 70.7306V68.0584C57.286 66.6309 56.1248 65.4697 54.6974 65.4697ZM54.7809 70.7306C54.7809 70.7767 54.7435 70.814 54.6974 70.814H49.3529C49.3068 70.814 49.2695 70.7767 49.2695 70.7306V68.0584C49.2695 68.0123 49.3068 67.975 49.3529 67.975H54.6974C54.7435 67.975 54.7809 68.0123 54.7809 68.0584V70.7306Z" fill="#C94D00"/>
<path d="M42.6723 65.4697H37.3278C35.9003 65.4697 34.739 66.6309 34.739 68.0584V70.7306C34.739 72.1581 35.9003 73.3194 37.3278 73.3194H42.6723C44.0998 73.3194 45.2611 72.1581 45.2611 70.7306V68.0584C45.2611 66.6309 44.0998 65.4697 42.6723 65.4697ZM42.7559 70.7306C42.7559 70.7767 42.7185 70.814 42.6725 70.814H37.3279C37.2818 70.814 37.2445 70.7767 37.2445 70.7306V68.0584C37.2445 68.0123 37.2818 67.975 37.3279 67.975H42.6725C42.7185 67.975 42.7559 68.0123 42.7559 68.0584V70.7306Z" fill="#C94D00"/>
<path d="M44.0084 9.35278H35.9917C35.3 9.35278 34.739 9.91356 34.739 10.6054C34.739 11.2973 35.2998 11.8581 35.9917 11.8581H44.0084C44.7001 11.8581 45.2611 11.2973 45.2611 10.6054C45.2611 9.91356 44.7003 9.35278 44.0084 9.35278Z" fill="#C94D00"/>
<path d="M49.3528 14.6973H30.6472C29.9555 14.6973 29.3945 15.2581 29.3945 15.95C29.3945 16.6419 29.9553 17.2026 30.6472 17.2026H49.3528C50.0445 17.2026 50.6055 16.6419 50.6055 15.95C50.6055 15.2581 50.0445 14.6973 49.3528 14.6973Z" fill="#C94D00"/>
<path d="M33.3194 20.0417H30.6472C29.9555 20.0417 29.3945 20.6025 29.3945 21.2944C29.3945 21.9863 29.9553 22.5471 30.6472 22.5471H33.3194C34.0111 22.5471 34.572 21.9863 34.572 21.2944C34.572 20.6025 34.0113 20.0417 33.3194 20.0417Z" fill="#C94D00"/>
<path d="M49.3528 20.0417H46.6806C45.9889 20.0417 45.428 20.6025 45.428 21.2944C45.428 21.9863 45.9888 22.5471 46.6806 22.5471H49.3528C50.0445 22.5471 50.6055 21.9863 50.6055 21.2944C50.6055 20.6025 50.0445 20.0417 49.3528 20.0417Z" fill="#C94D00"/>
<path d="M41.336 20.0417H38.6638C37.9721 20.0417 37.4111 20.6025 37.4111 21.2944C37.4111 21.9863 37.9719 22.5471 38.6638 22.5471H41.336C42.0277 22.5471 42.5886 21.9863 42.5886 21.2944C42.5886 20.6025 42.0277 20.0417 41.336 20.0417Z" fill="#C94D00"/>
</svg>
