<svg width="55" height="53" viewBox="0 0 55 53" fill="none" xmlns="http://www.w3.org/2000/svg">
<mask id="path-1-inside-1_4603_771" fill="white">
<path fill-rule="evenodd" clip-rule="evenodd" d="M55 0V48.0593L48.0424 53V4.94068H0L6.44869 0H55ZM32.0001 34.4943V52V53H33.0001L47.0001 53H48.0001V52V6.00018L48.0001 5.00018L47.0001 5.00018L1.00009 5L8.78126e-05 5L8.54524e-05 6L8.84869e-05 20L8.78126e-05 21H1.00009L19.514 21H20.9282L19.9282 22L0.707149 41.2211L4.19568e-05 41.9282L0.707149 42.6353L10.324 52.2522L11.0311 52.9593L11.7382 52.2522L31.0001 32.9903L32.0001 31.9903V31.9999L11 53L17.3898 48.0593L21.4264 45.0082L32.0001 34.4943ZM31.293 31.2832L11.0311 51.545L1.41426 41.9282L21.6353 21.7071L23.3424 20H20.9282L1.00009 20L1.00009 6.00001L47.0001 6.00017L47.0001 52L33.0001 52V31.9903V29.5761L31.293 31.2832Z"/>
</mask>
<path fill-rule="evenodd" clip-rule="evenodd" d="M55 0V48.0593L48.0424 53V4.94068H0L6.44869 0H55ZM32.0001 34.4943V52V53H33.0001L47.0001 53H48.0001V52V6.00018L48.0001 5.00018L47.0001 5.00018L1.00009 5L8.78126e-05 5L8.54524e-05 6L8.84869e-05 20L8.78126e-05 21H1.00009L19.514 21H20.9282L19.9282 22L0.707149 41.2211L4.19568e-05 41.9282L0.707149 42.6353L10.324 52.2522L11.0311 52.9593L11.7382 52.2522L31.0001 32.9903L32.0001 31.9903V31.9999L11 53L17.3898 48.0593L21.4264 45.0082L32.0001 34.4943ZM31.293 31.2832L11.0311 51.545L1.41426 41.9282L21.6353 21.7071L23.3424 20H20.9282L1.00009 20L1.00009 6.00001L47.0001 6.00017L47.0001 52L33.0001 52V31.9903V29.5761L31.293 31.2832Z" fill="#C94D00"/>
<path d="M55 48.0593L55.579 48.8747L56 48.5757V48.0593H55ZM55 0H56V-1H55V0ZM48.0424 53H47.0424V54.9366L48.6214 53.8153L48.0424 53ZM48.0424 4.94068H49.0424V3.94068H48.0424V4.94068ZM0 4.94068L-0.608174 4.14687L-2.94949 5.94068H0V4.94068ZM6.44869 0V-1H6.10965L5.84051 -0.793803L6.44869 0ZM32.0001 34.4943H33.0001V32.0897L31.295 33.7852L32.0001 34.4943ZM32.0001 53H31.0001V54H32.0001V53ZM33.0001 53V54V53ZM47.0001 53V52V53ZM48.0001 53V54H49.0001V53H48.0001ZM48.0001 6.00018L47.0001 6.00017V6.00018H48.0001ZM48.0001 5.00018L49.0001 5.00018L49.0001 4.00018L48.0001 4.00018V5.00018ZM47.0001 5.00018L47.0001 6.00018H47.0001V5.00018ZM1.00009 5L1.00009 4H1.00009L1.00009 5ZM8.78126e-05 5L8.73357e-05 4L-0.99991 4L-0.999912 5L8.78126e-05 5ZM8.54524e-05 6L-0.999915 6V6H8.54524e-05ZM8.84869e-05 20H1.00009H8.84869e-05ZM8.78126e-05 21H-0.999912L-0.999913 22H8.78126e-05V21ZM1.00009 21L1.00009 20H1.00009V21ZM19.514 21V22V21ZM20.9282 21L21.6353 21.7071L23.3424 20H20.9282V21ZM19.9282 22L20.6353 22.7071V22.7071L19.9282 22ZM0.707149 41.2211L4.19988e-05 40.514H4.15646e-05L0.707149 41.2211ZM4.19568e-05 41.9282L-0.707065 41.2211L-1.41417 41.9282L-0.707065 42.6353L4.19568e-05 41.9282ZM0.707149 42.6353L4.15648e-05 43.3424H4.18729e-05L0.707149 42.6353ZM10.324 52.2522L9.6169 52.9593H9.6169L10.324 52.2522ZM11.0311 52.9593L10.324 53.6664L11.0311 54.3735L11.7382 53.6664L11.0311 52.9593ZM11.7382 52.2522L12.4453 52.9593H12.4453L11.7382 52.2522ZM31.0001 32.9903L31.7072 33.6974L31.0001 32.9903ZM32.0001 31.9903H33.0001V29.5761L31.293 31.2832L32.0001 31.9903ZM32.0001 31.9999L32.7072 32.707L33.0001 32.4141V31.9999H32.0001ZM11 53L10.2929 52.2929L11.6117 53.7911L11 53ZM17.3898 48.0593L16.7868 47.2615L16.7781 47.2682L17.3898 48.0593ZM21.4264 45.0082L22.0294 45.8059L22.0835 45.7651L22.1315 45.7173L21.4264 45.0082ZM11.0311 51.545L10.324 52.2522L11.0311 52.9593L11.7382 52.2522L11.0311 51.545ZM1.41426 41.9282L0.707149 41.2211L4.19936e-05 41.9282L0.707149 42.6353L1.41426 41.9282ZM21.6353 21.7071L22.3424 22.4142V22.4142L21.6353 21.7071ZM23.3424 20L24.0495 20.7071L25.7566 19H23.3424V20ZM20.9282 20V21V20ZM1.00009 20H8.89301e-05L8.89131e-05 21H1.00009L1.00009 20ZM1.00009 6.00001L1.00009 5.00001L8.91856e-05 5L8.91685e-05 6.00001H1.00009ZM47.0001 6.00017H48.0001V5.00018L47.0001 5.00017L47.0001 6.00017ZM47.0001 52V53H48.0001V52H47.0001ZM33.0001 52H32.0001V53H33.0001V52ZM33.0001 29.5761H34.0001V27.1619L32.293 28.869L33.0001 29.5761ZM56 48.0593V0H54V48.0593H56ZM48.6214 53.8153L55.579 48.8747L54.421 47.244L47.4634 52.1847L48.6214 53.8153ZM47.0424 4.94068V53H49.0424V4.94068H47.0424ZM0 5.94068H48.0424V3.94068H0V5.94068ZM5.84051 -0.793803L-0.608174 4.14687L0.608174 5.73448L7.05686 0.793803L5.84051 -0.793803ZM55 -1H6.44869V1H55V-1ZM31.0001 34.4943V52H33.0001V34.4943H31.0001ZM31.0001 52V53H33.0001V52H31.0001ZM32.0001 54H33.0001V52H32.0001V54ZM33.0001 54L47.0001 54V52L33.0001 52V54ZM47.0001 54H48.0001V52H47.0001V54ZM49.0001 53V52H47.0001V53H49.0001ZM49.0001 52V6.00018H47.0001V52H49.0001ZM49.0001 6.00018L49.0001 5.00018L47.0001 5.00018L47.0001 6.00017L49.0001 6.00018ZM48.0001 4.00018L47.0001 4.00018V6.00018L48.0001 6.00018V4.00018ZM47.0001 4.00018L1.00009 4L1.00008 6L47.0001 6.00018L47.0001 4.00018ZM1.00009 4L8.73357e-05 4L8.82894e-05 6L1.00009 6L1.00009 4ZM-0.999912 5L-0.999915 6L1.00009 6L1.00009 5.00001L-0.999912 5ZM-0.999915 6L-0.999911 20H1.00009L1.00009 6H-0.999915ZM-0.999911 20L-0.999912 21H1.00009L1.00009 20H-0.999911ZM8.78126e-05 22H1.00009V20H8.78126e-05V22ZM1.00009 22L19.514 22V20L1.00009 20L1.00009 22ZM19.514 22H20.9282V20H19.514V22ZM20.2211 20.2929L19.2211 21.2929L20.6353 22.7071L21.6353 21.7071L20.2211 20.2929ZM19.2211 21.2929L4.19989e-05 40.514L1.41426 41.9282L20.6353 22.7071L19.2211 21.2929ZM4.15646e-05 40.514L-0.707065 41.2211L0.707149 42.6353L1.41426 41.9282L4.15646e-05 40.514ZM-0.707065 42.6353L4.15646e-05 43.3424L1.41426 41.9282L0.707149 41.2211L-0.707065 42.6353ZM4.18729e-05 43.3424L9.6169 52.9593L11.0311 51.545L1.41426 41.9282L4.18729e-05 43.3424ZM9.6169 52.9593L10.324 53.6664L11.7382 52.2521L11.0311 51.545L9.6169 52.9593ZM11.7382 53.6664L12.4453 52.9593L11.0311 51.545L10.324 52.2521L11.7382 53.6664ZM12.4453 52.9593L31.7072 33.6974L30.293 32.2832L11.0311 51.545L12.4453 52.9593ZM31.7072 33.6974L32.7072 32.6974L31.293 31.2832L30.293 32.2832L31.7072 33.6974ZM31.0001 31.9903V31.9999H33.0001V31.9903H31.0001ZM31.293 31.2928L10.2929 52.2929L11.7071 53.7071L32.7072 32.707L31.293 31.2928ZM11.6117 53.7911L18.0015 48.8504L16.7781 47.2682L10.3883 52.2089L11.6117 53.7911ZM17.9928 48.8571L22.0294 45.8059L20.8234 44.2104L16.7868 47.2616L17.9928 48.8571ZM22.1315 45.7173L32.7052 35.2034L31.295 33.7852L20.7213 44.2991L22.1315 45.7173ZM11.7382 52.2522L32.0001 31.9903L30.5859 30.5761L10.324 50.8379L11.7382 52.2522ZM0.707149 42.6353L10.324 52.2522L11.7382 50.8379L2.12136 41.2211L0.707149 42.6353ZM20.9282 21L0.707149 41.2211L2.12136 42.6353L22.3424 22.4142L20.9282 21ZM22.6353 19.2929L20.9282 21L22.3424 22.4142L24.0495 20.7071L22.6353 19.2929ZM20.9282 21H23.3424V19H20.9282V21ZM1.00009 21L20.9282 21V19L1.00009 19L1.00009 21ZM8.91685e-05 6.00001L8.89301e-05 20H2.00009L2.00009 6.00001H8.91685e-05ZM47.0001 5.00017L1.00009 5.00001L1.00009 7.00001L47.0001 7.00017L47.0001 5.00017ZM48.0001 52L48.0001 6.00017H46.0001L46.0001 52H48.0001ZM33.0001 53L47.0001 53V51L33.0001 51V53ZM32.0001 31.9903V52H34.0001V31.9903H32.0001ZM32.0001 29.5761V31.9903H34.0001V29.5761H32.0001ZM32.0001 31.9903L33.7072 30.2832L32.293 28.869L30.5859 30.5761L32.0001 31.9903Z" fill="#C94D00" mask="url(#path-1-inside-1_4603_771)"/>
</svg>
